<?xml version="1.0" encoding="utf-8"?>
<!-- Generator: Adobe Illustrator 26.2.1, SVG Export Plug-In . SVG Version: 6.00 Build 0)  -->
<svg version="1.1" id="Layer_1" xmlns="http://www.w3.org/2000/svg" xmlns:xlink="http://www.w3.org/1999/xlink" x="0px" y="0px"
	 viewBox="0 0 1080 280" style="enable-background:new 0 0 1080 280;" xml:space="preserve">
<style type="text/css">
	.st0{fill:#414141;}
</style>
<g>
	<path class="st0" d="M222.1,46.9c-11,0-24.2,0-35.2,0v89.7c11,0,24.2,0,35.2,0c31.4,0,45.2-22.9,44.9-45.6
		C266.6,68.8,252.9,46.9,222.1,46.9z M222.1,120.3h-18.5V62.9h18.5c19.5,0,27.7,14,28.1,27.9C250.5,105.4,242.5,120.3,222.1,120.3z"
		/>
	<path class="st0" d="M371,46.9h-18.5l-40.2,89.7h18.3l7.7-16.9h46.9l7.6,16.9h18.5L371,46.9z M345.1,103.9l16.7-38.2l16.7,38.2
		H345.1z"/>
	<path class="st0" d="M498.8,46.7c-14.1,0-28.2,0.1-42.3,0.1v89.7h16.9v-26.4h25.4C542.7,110.2,542.6,46.7,498.8,46.7z M498.8,94.7
		h-25.4V62.9h25.4C520.3,62.9,520.5,94.7,498.8,94.7z"/>
	<path class="st0" d="M619.3,46.7c-14.1,0-28.2,0.1-42.3,0.1v89.7h16.9v-26.4h25.4C663.3,110.2,663.1,46.7,619.3,46.7z M619.3,94.7
		h-25.4V62.9h25.4C640.8,62.9,641,94.7,619.3,94.7z"/>
	<path class="st0" d="M764.7,136.6h-67.1c0-29.8,0-59.8,0-89.7h67.1v16.4h-50.4v20.6h48.6v15.8h-48.6v20.2h50.4V136.6z"/>
	<path class="st0" d="M869.8,104.8c17-3.5,22.7-15.9,22.7-28.2c0-15.5-11.1-29.6-32.3-29.7c-14.2,0-28.4-0.1-42.7-0.1v89.8h16.9v-30
		h16.3l26.1,30H897v-1.1L869.8,104.8z M834.5,91.3V62.6h25.7c10.6,0,15.4,7.2,15.4,14.3c0,7.2-4.6,14.4-15.4,14.4H834.5z"/>
</g>
<g>
	<g>
		<path class="st0" d="M465.3,217.1v2.8h-6.7v9.8h8.3v2.8h-11.3v-27.5h11.3v2.8h-8.3v9.4H465.3z"/>
		<path class="st0" d="M483.3,204.6c2.1,0,3.6,0.6,4.6,1.9c1,1.2,1.5,2.9,1.5,5v0.7h-2.9v-0.9c0-1.3-0.2-2.2-0.7-2.9
			c-0.5-0.7-1.3-1-2.4-1c-1.1,0-1.9,0.3-2.4,1c-0.5,0.7-0.7,1.6-0.7,2.9c0,1,0.2,1.9,0.7,2.7c0.5,0.8,1,1.5,1.7,2.1
			c0.7,0.6,1.4,1.3,2.2,1.9c0.8,0.6,1.5,1.3,2.2,2c0.7,0.7,1.2,1.6,1.7,2.5c0.5,0.9,0.7,2,0.7,3.3c0,2.1-0.5,3.8-1.5,5
			c-1,1.2-2.6,1.9-4.7,1.9c-2.1,0-3.7-0.6-4.7-1.9c-1-1.2-1.5-2.9-1.5-5v-1.6h2.9v1.7c0,1.3,0.3,2.2,0.8,2.9c0.5,0.7,1.3,1,2.4,1
			c1.1,0,1.9-0.3,2.4-1c0.5-0.7,0.8-1.7,0.8-2.9c0-1-0.2-1.9-0.7-2.6c-0.5-0.8-1-1.4-1.7-2.1c-0.7-0.6-1.4-1.3-2.2-1.9
			c-0.8-0.6-1.5-1.3-2.2-2c-0.7-0.7-1.3-1.6-1.7-2.5c-0.4-0.9-0.7-2-0.7-3.3c0-2.1,0.5-3.8,1.5-5
			C479.7,205.2,481.2,204.6,483.3,204.6z"/>
		<path class="st0" d="M504,232.4v-24.7h-5.1v-2.8h13.2v2.8H507v24.7H504z"/>
		<path class="st0" d="M522.6,228.6v3.8h-2.9v-3.8H522.6z"/>
		<path class="st0" d="M553.8,204.6c2.1,0,3.7,0.6,4.7,1.9c1,1.3,1.5,3,1.5,5.1c0,1.4-0.2,2.6-0.7,3.8c-0.4,1.1-1,2.1-1.7,3.1
			c-0.7,1-1.4,1.9-2.2,2.7c-0.8,0.8-1.5,1.7-2.2,2.5c-0.7,0.8-1.3,1.7-1.8,2.6c-0.5,0.9-0.7,1.9-0.7,2.9v0.4h9v2.8h-12.1V230
			c0-1.5,0.2-2.8,0.7-3.9c0.5-1.1,1-2.2,1.7-3.1c0.7-0.9,1.4-1.8,2.2-2.6c0.8-0.8,1.5-1.7,2.2-2.5c0.7-0.9,1.3-1.8,1.7-2.8
			c0.5-1,0.7-2.1,0.7-3.4c0-1.4-0.3-2.5-0.8-3.2c-0.5-0.7-1.3-1.1-2.5-1.1c-1.1,0-2,0.4-2.5,1.1c-0.5,0.7-0.8,1.7-0.8,2.9v2.4h-2.9
			v-2.2c0-2.1,0.5-3.8,1.5-5.1C550.1,205.2,551.6,204.6,553.8,204.6z"/>
		<path class="st0" d="M570.4,211.5c0-2.1,0.5-3.8,1.6-5.1c1-1.2,2.6-1.9,4.7-1.9c2.1,0,3.7,0.6,4.8,1.9c1,1.2,1.6,2.9,1.6,5.1v14.2
			c0,2.1-0.5,3.8-1.6,5.1c-1,1.3-2.6,1.9-4.8,1.9c-2.1,0-3.7-0.6-4.7-1.9c-1-1.3-1.6-2.9-1.6-5.1V211.5z M573.5,225.9
			c0,1.3,0.3,2.2,0.8,2.9c0.5,0.7,1.4,1,2.5,1c1.1,0,2-0.3,2.5-1c0.5-0.7,0.8-1.7,0.8-2.9v-14.6c0-1.3-0.3-2.2-0.8-2.9
			c-0.5-0.7-1.3-1.1-2.5-1.1c-1.1,0-1.9,0.4-2.5,1.1c-0.5,0.7-0.8,1.7-0.8,2.9V225.9z"/>
		<path class="st0" d="M599.5,209.9c-0.5,0.3-1.1,0.6-1.8,0.8c-0.6,0.2-1.3,0.3-2.1,0.4v-2.5c0.7,0,1.4-0.1,1.9-0.3
			c0.5-0.2,1-0.5,1.3-0.8c0.3-0.3,0.6-0.7,0.9-1.1c0.2-0.4,0.4-0.9,0.6-1.4h2.1v27.5h-3V209.9z"/>
		<path class="st0" d="M626.2,226.8v5.5h-3v-5.5h-8.9v-2.8l8.5-19.2h3.3v19.2h2.2v2.8H626.2z M617.1,224.1h6.1v-13.4L617.1,224.1z"
			/>
	</g>
</g>
</svg>
